# xmcd
#
# Track frame offsets:
#	150
#	27122
#	48505
#	76663
#	105258
#	139359
#	174513
#	193164
#	227628
#	258820
#	276856
#
# Disc length: 4058 seconds
#
# Revision: 1
# Processed by: cddbd v1.5.2PL0 Copyright (c) Steve Scherf et al.
# Submitted via: audiograbber 1.83.01
#
DISCID=890fd80b
DTITLE=Grateful Dead - 73-05-20A Campus Stadium, Santa Barbara CA
DYEAR=1900
DGENRE=
TTITLE0=Bertha
TTITLE1=Me and My Uncle
TTITLE2=Box Of Rain
TTITLE3=Deal
TTITLE4=Looks Like Rain
TTITLE5=Tennessee Jed
TTITLE6=The Race Is On
TTITLE7=China Cat Sunflower
TTITLE8=I Know You Rider
TTITLE9=BIODTL
TTITLE10=They Love Each Other
EXTD=
EXTT0=
EXTT1=
EXTT2=
EXTT3=
EXTT4=
EXTT5=
EXTT6=
EXTT7=
EXTT8=
EXTT9=
EXTT10=
PLAYORDER=
